<svg width="32" height="32" viewBox="0 0 32 32" fill="none" xmlns="http://www.w3.org/2000/svg">
  <!-- Dark Core (as seen in FloatingOrb) -->
  <circle cx="16" cy="16" r="8" fill="#061510"/>
  <circle cx="16" cy="16" r="8" fill="url(#coreGlow)" opacity="0.6"/>

  <!-- Geodesic Wireframe Overlay (Simplified for 32x32) -->
  <g stroke="#B0E4CC" stroke-width="0.75" stroke-linecap="round" stroke-linejoin="round" opacity="0.8">
    <!-- Main icosahedron-like lines -->
    <path d="M16 4L24 10L16 16L8 10L16 4Z"/>
    <path d="M24 10L28 20L16 26L4 20L8 10"/>
    <path d="M16 16L28 20"/>
    <path d="M16 16L4 20"/>
    <path d="M8 10L4 20"/>
    <path d="M24 10L28 20"/>
    
    <!-- Vertical and depth lines -->
    <path d="M16 4V16"/>
    <path d="M16 26V16"/>
    <path d="M16 16L22 13"/>
    <path d="M16 16L10 13"/>
  </g>

  <!-- External Glow -->
  <circle cx="16" cy="16" r="14" stroke="#B0E4CC" stroke-width="0.5" stroke-dasharray="2 2" opacity="0.3"/>

  <defs>
    <radialGradient id="coreGlow" cx="0" cy="0" r="1" gradientUnits="userSpaceOnUse" gradientTransform="translate(16 16) rotate(90) scale(8)">
      <stop stop-color="#468A73"/>
      <stop offset="1" stop-color="#061510" stop-opacity="0"/>
    </radialGradient>
  </defs>
</svg>
